<!-- icon666.com - MILLIONS OF FREE VECTOR ICONS --><svg enable-background="new 0 0 64 64" viewBox="0 0 64 64" xmlns="http://www.w3.org/2000/svg" xmlns:xlink="http://www.w3.org/1999/xlink"><linearGradient id="SVGID_1_" gradientUnits="userSpaceOnUse" x1="20.143" x2="46.928" y1="57.856" y2="11.463"><stop offset="0" stop-color="#8815ff"></stop><stop offset=".263809" stop-color="#7238f7"></stop><stop offset=".8451316" stop-color="#3a90e2"></stop><stop offset="1" stop-color="#2aa8dc"></stop></linearGradient><g id="_x31_8-Mail"><g><g><path d="m52.6289063 23.2226563-5.7705078-4.6711426v-6.5515137c0-.5522461-.4472656-1-1-1h-27.7167969c-.5522461 0-1 .4477539-1 1v6.5524292l-5.7705078 4.6702271c-.2348633.1899414-.3710938.4755859-.3710938.7773437v28c0 .5522461.4477539 1 1 1h40c.5527344 0 1-.4477539 1-1v-28c0-.3017578-.1367187-.5874023-.3710937-.7773437zm-5.7705079-2.0982667 3.5756836 2.8945923-3.5756836 3.0393677zm-27.7167968-8.1243896h25.7167969v15.7583618l-9.9237671 8.4353027-2.3135376-1.8342896c-.3632813-.2880859-.8789063-.2880859-1.2421875 0l-2.3135376 1.8342896-9.9237671-8.4353027zm-2 8.1251221v5.9332275l-3.5756226-3.0393677zm-4.1416016 5.0369262 14.4680786 12.2980347-14.4680786 11.4709473zm1.8708496 24.8379517 17.1291504-13.5805664 17.1291504 13.5805664zm36.1291504-1.0689697-14.4680176-11.4709473 14.4680176-12.2979736zm-27-31.9310303h16c.5527344 0 1-.4477539 1-1s-.4472656-1-1-1h-16c-.5522461 0-1 .4477539-1 1s.4477539 1 1 1zm0 5h16c.5527344 0 1-.4477539 1-1s-.4472656-1-1-1h-16c-.5522461 0-1 .4477539-1 1s.4477539 1 1 1zm17 4c0-.5522461-.4472656-1-1-1h-16c-.5522461 0-1 .4477539-1 1s.4477539 1 1 1h16c.5527344 0 1-.4477539 1-1z" fill="url(#SVGID_1_)"></path></g></g></g></svg>