<?xml version="1.0" standalone="no"?>
<!DOCTYPE svg PUBLIC "-//W3C//DTD SVG 20010904//EN"
 "http://www.w3.org/TR/2001/REC-SVG-20010904/DTD/svg10.dtd">
<svg version="1.0" xmlns="http://www.w3.org/2000/svg"
 width="512.000000pt" height="512.000000pt" viewBox="0 0 512.000000 512.000000"
 preserveAspectRatio="xMidYMid meet">

<g transform="translate(0.000000,512.000000) scale(0.100000,-0.100000)"
fill="#000000" stroke="none">
<path d="M2005 3940 c-200 -52 -345 -144 -479 -303 -125 -147 -206 -372 -206
-571 0 -33 -3 -90 -6 -126 l-6 -66 -49 -27 c-91 -50 -148 -166 -134 -272 9
-73 57 -151 120 -194 37 -24 49 -39 48 -55 -1 -11 -3 -45 -3 -74 -4 -160 172
-270 314 -197 35 18 40 15 40 -30 0 -45 -36 -83 -86 -91 -90 -15 -5 -87 102
-87 59 0 108 19 151 60 l27 25 24 -34 c13 -18 69 -96 124 -173 176 -248 259
-347 315 -377 94 -51 209 -31 278 47 46 53 94 186 98 275 4 70 2 78 -29 129
-18 29 -43 70 -55 90 -13 20 -23 41 -23 47 0 7 26 14 61 18 33 4 66 9 72 12 7
2 23 -17 37 -43 60 -114 187 -200 334 -228 43 -8 94 -25 113 -36 38 -24 79
-88 88 -139 5 -32 -4 -173 -21 -308 -6 -48 -5 -52 13 -52 63 0 229 108 334
217 147 153 212 272 225 414 7 65 9 71 44 99 83 66 138 202 126 310 -4 30 -20
83 -35 117 l-29 61 24 50 c48 100 48 244 0 349 -29 62 -104 145 -162 179 l-41
24 -5 109 c-4 99 -7 115 -41 185 -76 161 -238 266 -408 266 l-57 0 -32 56
c-47 84 -118 149 -208 192 -75 36 -80 37 -197 38 l-120 1 -95 46 c-139 67
-230 87 -387 86 -91 0 -148 -5 -198 -19z m342 -40 c39 -14 62 -48 71 -103 6
-33 12 -42 27 -42 26 0 31 41 11 90 l-16 37 28 -6 c48 -12 186 -85 221 -117
33 -30 34 -31 28 -95 -5 -53 -3 -66 9 -71 20 -8 25 -1 39 53 l11 46 57 -63
c96 -105 126 -188 92 -253 -20 -38 -19 -56 5 -56 12 0 26 13 37 33 l17 32 22
-70 c14 -41 23 -96 23 -133 1 -53 -3 -67 -22 -86 -13 -13 -29 -25 -37 -28 -9
-3 -11 -11 -7 -22 7 -18 18 -18 61 0 18 7 19 4 12 -61 -8 -76 -27 -129 -58
-162 -16 -18 -33 -23 -69 -23 -69 0 -76 -42 -9 -52 22 -3 19 -7 -29 -35 -105
-61 -211 -68 -316 -19 -30 14 -55 26 -55 28 0 2 35 3 78 3 66 0 84 4 123 27
56 33 95 77 122 138 31 68 29 232 -3 315 -87 225 -293 352 -525 324 -214 -26
-385 -197 -417 -417 -14 -97 0 -191 42 -280 l28 -60 -31 -6 c-18 -4 -73 -27
-124 -51 -109 -53 -183 -120 -219 -200 -14 -30 -32 -55 -39 -55 -25 0 -99 65
-128 112 -36 59 -47 149 -24 195 37 70 105 103 215 103 55 0 62 2 62 20 0 58
-203 27 -279 -43 l-24 -22 6 151 c6 165 15 197 64 232 42 29 90 42 155 42 45
0 60 4 65 16 10 26 -18 35 -89 31 -46 -3 -84 -13 -119 -30 l-51 -25 7 37 c17
92 108 269 158 305 37 27 123 28 191 2 40 -15 50 -16 57 -5 20 31 -65 69 -155
69 l-49 0 24 26 c38 41 139 114 201 145 93 47 180 37 250 -28 26 -25 48 -24
48 1 0 14 -60 71 -96 92 -48 29 249 42 323 14z m523 -121 c117 -18 215 -80
281 -175 34 -50 69 -143 69 -185 0 -41 10 -59 33 -59 19 0 19 4 14 66 l-6 67
72 -5 c229 -15 407 -245 368 -474 -15 -84 -50 -157 -108 -223 -42 -49 -48 -71
-18 -71 25 0 95 83 129 152 l32 67 52 -34 c60 -41 91 -80 129 -160 23 -51 28
-73 28 -145 0 -77 -3 -92 -34 -154 l-33 -68 32 -64 c63 -123 48 -256 -39 -356
-49 -55 -113 -87 -202 -101 -55 -8 -69 -14 -67 -26 3 -13 17 -16 63 -16 33 1
72 4 88 9 26 8 27 7 27 -27 0 -56 -36 -158 -80 -225 -51 -79 -188 -222 -265
-277 -63 -45 -124 -79 -130 -73 -2 2 0 35 6 73 15 108 13 245 -4 286 -20 49
-73 106 -117 129 -21 11 -68 24 -105 30 -135 22 -248 101 -306 215 -31 59 -37
66 -59 61 -14 -3 -54 -9 -88 -12 -77 -8 -82 -4 -82 83 0 99 -26 211 -69 299
-38 76 -112 174 -132 174 -27 0 -17 -35 26 -92 86 -113 118 -212 130 -398 8
-127 23 -175 80 -260 28 -40 47 -82 51 -109 l7 -44 -25 19 c-13 10 -36 33 -49
52 -55 75 -57 78 -70 65 -20 -20 -1 -60 62 -128 l61 -65 -23 -65 c-27 -78 -43
-82 -93 -24 -23 27 -40 39 -51 36 -8 -4 -15 -10 -15 -15 0 -18 60 -91 79 -97
33 -10 25 -22 -34 -51 -60 -29 -108 -29 -165 1 -84 43 -571 742 -696 997 -26
53 -27 60 -15 99 28 92 190 209 331 240 64 14 101 44 166 135 78 108 118 222
131 375 l8 84 38 -58 c50 -76 77 -156 83 -247 7 -99 -9 -129 -105 -193 -71
-47 -151 -121 -151 -139 0 -5 7 -11 15 -14 9 -4 35 13 68 42 29 27 77 63 105
81 l52 32 30 -44 c79 -115 242 -182 380 -155 123 23 240 112 286 217 85 192
41 505 -102 726 -26 40 -79 104 -119 144 -70 70 -72 77 -30 82 6 0 39 -4 75
-10z m-434 -300 c168 -31 307 -162 350 -329 21 -81 14 -202 -15 -257 -70 -136
-229 -164 -355 -61 l-28 24 16 47 c9 26 16 62 16 80 -1 103 -66 277 -130 345
-35 36 -46 39 -78 16 -19 -13 -22 -24 -22 -82 -1 -147 -64 -320 -154 -419
l-44 -48 -32 67 c-117 250 37 555 310 614 71 16 94 16 166 3z m-1114 -754 c4
-80 10 -105 37 -159 36 -73 72 -108 148 -143 47 -22 56 -32 94 -101 24 -42 78
-134 121 -204 43 -69 78 -132 78 -140 0 -19 -49 -64 -83 -77 -33 -13 -97 -15
-97 -3 0 4 9 13 20 19 52 33 66 151 23 194 -20 20 -20 20 -69 -6 -98 -53 -205
-15 -248 89 -18 41 -19 52 -8 99 21 87 20 90 -16 100 -49 15 -118 81 -138 132
-25 66 -15 155 23 209 26 37 85 86 103 86 4 0 10 -43 12 -95z"/>
<path d="M1920 2231 c0 -45 51 -180 75 -199 29 -23 108 -47 130 -39 22 9 19
26 -8 38 -19 8 -22 16 -19 48 5 51 -36 99 -88 105 -29 3 -36 8 -42 35 -10 36
-48 45 -48 12z m112 -103 c20 -17 28 -42 18 -59 -7 -11 -12 -10 -28 4 -23 21
-35 67 -18 67 7 0 19 -6 28 -12z"/>
</g>
</svg>
