<?xml version="1.0" standalone="no"?>
<!DOCTYPE svg PUBLIC "-//W3C//DTD SVG 20010904//EN"
 "http://www.w3.org/TR/2001/REC-SVG-20010904/DTD/svg10.dtd">
<svg version="1.0" xmlns="http://www.w3.org/2000/svg"
 width="512.000000pt" height="512.000000pt" viewBox="0 0 512.000000 512.000000"
 preserveAspectRatio="xMidYMid meet">

<g transform="translate(0.000000,512.000000) scale(0.100000,-0.100000)"
fill="#000000" stroke="none">
<path d="M2320 5109 c-503 -50 -988 -250 -1378 -566 -96 -78 -113 -105 -95
-152 9 -23 5 -31 -40 -77 -45 -48 -51 -51 -76 -41 -49 18 -75 2 -154 -95 -611
-753 -747 -1779 -353 -2667 262 -590 789 -1096 1387 -1329 534 -208 1099 -238
1644 -85 929 260 1646 1043 1819 1987 156 845 -103 1682 -705 2285 -398 398
-880 639 -1449 726 -127 19 -468 27 -600 14z m410 -449 c58 -5 149 -17 203
-26 80 -14 98 -20 94 -33 -2 -9 -46 -172 -97 -362 l-93 -346 -41 10 c-53 14
-419 14 -472 0 l-41 -10 -93 346 c-51 190 -95 353 -97 362 -4 13 14 19 94 33
190 33 365 42 543 26z m-776 -142 c43 -152 177 -661 174 -663 -2 -2 -40 -17
-84 -34 -89 -34 -216 -107 -303 -173 -30 -24 -63 -48 -71 -55 -14 -10 -55 27
-279 251 l-263 263 88 73 c103 85 231 171 353 238 82 44 333 151 358 152 6 0
18 -24 27 -52z m1365 6 c217 -87 412 -201 585 -344 l88 -73 -263 -263 c-224
-224 -265 -261 -279 -251 -8 7 -41 31 -71 55 -86 65 -209 136 -301 172 -46 18
-84 34 -86 36 -3 1 132 514 174 662 9 28 20 52 26 52 6 0 63 -21 127 -46z
m-2035 -793 c184 -184 256 -263 251 -272 -5 -8 -25 -34 -45 -59 -73 -88 -178
-276 -209 -372 -7 -21 -15 -38 -18 -38 -17 0 -699 185 -707 191 -21 19 114
329 212 487 74 119 232 322 251 322 3 0 123 -116 265 -259z m2873 202 c76 -89
138 -174 195 -265 98 -158 233 -468 212 -487 -10 -9 -704 -195 -708 -189 -2 1
-20 44 -41 93 -46 108 -121 236 -179 308 -23 29 -46 58 -50 66 -6 9 64 86 250
272 142 143 262 259 265 259 4 0 29 -26 56 -57z m-1417 -177 c380 -58 715
-297 889 -636 103 -200 135 -335 135 -560 0 -225 -32 -360 -135 -560 -165
-320 -466 -548 -831 -626 -104 -23 -351 -25 -453 -5 -371 73 -687 307 -855
632 -63 123 -106 252 -125 376 -89 588 258 1147 829 1334 171 57 363 72 546
45z m-1865 -826 c186 -50 341 -93 343 -95 3 -2 -1 -38 -7 -80 -14 -97 -14
-293 0 -390 6 -42 10 -78 7 -80 -10 -10 -704 -192 -710 -186 -12 11 -38 183
-48 324 -12 151 -2 345 26 502 17 100 20 106 37 100 7 -2 165 -45 352 -95z
m3759 -5 c28 -158 38 -351 26 -502 -10 -141 -36 -313 -48 -324 -6 -6 -700 176
-710 186 -3 2 1 38 7 80 14 97 14 293 0 390 -6 42 -10 78 -7 80 10 10 704 192
710 186 4 -3 14 -46 22 -96z m-3330 -887 c48 -114 117 -232 185 -317 28 -35
51 -66 51 -70 0 -3 -117 -123 -261 -266 l-260 -260 -41 45 c-63 70 -154 192
-210 283 -88 140 -226 449 -215 480 2 8 665 193 702 196 6 1 28 -41 49 -91z
m2906 0 c190 -50 349 -95 354 -99 20 -18 -110 -320 -201 -469 -56 -91 -165
-238 -221 -300 l-41 -45 -260 260 c-144 143 -261 263 -261 266 0 4 23 35 51
70 68 85 137 203 185 317 21 50 41 92 44 92 3 0 160 -41 350 -92z m-2469 -566
c87 -66 214 -139 303 -173 44 -17 82 -32 84 -34 3 -2 -131 -511 -174 -663 -18
-62 -11 -62 -185 8 -198 80 -395 198 -562 338 l-79 65 263 263 c224 224 265
261 279 251 8 -7 41 -31 71 -55z m1988 -196 l263 -263 -88 -73 c-123 -102
-277 -201 -419 -270 -135 -65 -292 -127 -301 -117 -5 5 -193 691 -194 707 0 3
28 16 63 29 94 35 234 115 328 186 46 35 84 64 84 65 0 0 119 -119 264 -264z
m-1169 -70 c107 0 213 5 236 11 l41 10 93 -346 c51 -190 95 -353 97 -362 11
-38 -386 -78 -607 -61 -200 16 -333 41 -327 61 2 9 46 172 97 362 l93 346 41
-10 c23 -6 129 -11 236 -11z"/>
<path d="M2475 4506 c-155 -68 -189 -275 -63 -381 46 -39 89 -55 148 -55 247
0 312 341 83 437 -41 17 -129 16 -168 -1z m133 -156 c47 -44 15 -130 -48 -130
-38 0 -70 34 -70 75 0 41 32 75 70 75 14 0 36 -9 48 -20z"/>
<path d="M1593 4266 c-111 -52 -160 -190 -105 -301 83 -170 322 -172 406 -4
46 94 31 187 -43 260 -72 73 -164 89 -258 45z m131 -137 c33 -15 50 -57 37
-92 -19 -49 -79 -62 -118 -25 -37 35 -26 99 20 118 30 12 32 12 61 -1z"/>
<path d="M3345 4275 c-51 -18 -120 -91 -134 -141 -27 -96 6 -200 81 -254 169
-123 401 27 357 230 -29 135 -171 212 -304 165z m138 -167 c23 -28 22 -67 -5
-95 -54 -58 -148 4 -118 78 21 50 87 60 123 17z"/>
<path d="M1013 3649 c-130 -25 -210 -161 -172 -290 34 -111 165 -182 278 -149
167 48 218 273 88 387 -52 46 -125 65 -194 52z m97 -171 c11 -12 20 -35 20
-50 0 -31 -39 -78 -64 -78 -28 0 -64 22 -75 47 -16 36 -14 51 14 78 31 32 77
33 105 3z"/>
<path d="M4017 3649 c-112 -26 -177 -108 -177 -225 0 -201 237 -298 380 -154
77 76 90 182 36 275 -47 80 -150 124 -239 104z m84 -160 c49 -26 43 -107 -10
-129 -51 -21 -101 15 -101 74 0 52 61 82 111 55z"/>
<path d="M2485 3579 c-103 -86 -231 -122 -355 -101 -96 16 -112 7 -145 -77
-48 -125 -141 -218 -266 -266 -84 -33 -93 -49 -77 -145 21 -124 -15 -252 -101
-355 -24 -29 -41 -60 -41 -75 0 -15 17 -46 41 -75 86 -103 122 -231 101 -355
-16 -96 -7 -112 77 -145 125 -48 218 -141 266 -266 33 -84 49 -93 145 -77 124
21 252 -15 355 -101 63 -52 87 -52 150 0 103 86 231 122 355 101 96 -16 112
-7 145 77 48 125 141 218 266 266 84 33 93 49 77 145 -21 124 15 252 101 355
24 29 41 60 41 75 0 15 -17 46 -41 75 -86 103 -122 231 -101 355 16 96 7 112
-77 145 -125 48 -218 141 -266 266 -33 84 -49 93 -145 77 -124 -21 -252 15
-355 101 -29 24 -60 41 -75 41 -15 0 -46 -17 -75 -41z m133 -173 c86 -53 172
-77 288 -83 l102 -6 23 -51 c15 -32 54 -81 104 -131 50 -50 99 -89 131 -104
l51 -23 6 -102 c6 -116 30 -202 83 -288 l35 -58 -35 -57 c-53 -87 -77 -173
-83 -289 l-6 -102 -51 -23 c-68 -32 -203 -167 -235 -235 l-23 -51 -102 -6
c-116 -6 -202 -30 -288 -83 l-58 -35 -59 36 c-84 52 -169 76 -287 82 l-102 6
-23 51 c-32 68 -167 203 -235 235 l-51 23 -6 102 c-6 116 -30 202 -83 289
l-35 57 35 58 c53 86 77 172 83 288 l6 102 51 23 c32 15 81 54 131 104 50 50
89 99 104 131 l23 51 102 6 c116 6 210 33 289 83 29 19 54 34 55 34 2 0 29
-15 60 -34z"/>
<path d="M2421 3204 c-136 -29 -289 -124 -374 -233 -294 -373 -120 -908 339
-1047 82 -25 266 -25 348 0 223 67 396 239 462 461 25 83 25 267 0 349 -102
339 -439 543 -775 470z m289 -164 c110 -32 203 -101 270 -202 109 -163 109
-393 0 -556 -97 -145 -244 -223 -420 -223 -285 0 -501 216 -501 501 0 259 183
468 436 499 78 9 135 4 215 -19z"/>
<path d="M751 2776 c-49 -18 -111 -74 -132 -120 -77 -170 75 -357 256 -317
103 23 175 114 175 221 0 70 -26 126 -79 171 -64 56 -145 72 -220 45z m129
-168 c43 -47 10 -118 -55 -118 -41 0 -75 32 -75 70 0 63 86 95 130 48z"/>
<path d="M4221 2776 c-49 -18 -111 -74 -132 -120 -77 -170 75 -357 256 -317
103 23 175 114 175 221 0 70 -26 126 -79 171 -64 56 -145 72 -220 45z m129
-168 c43 -47 10 -118 -55 -118 -41 0 -75 32 -75 70 0 63 86 95 130 48z"/>
<path d="M980 1907 c-53 -17 -123 -93 -139 -150 -29 -103 13 -207 106 -259 93
-52 211 -34 279 44 42 48 57 97 52 171 -7 115 -89 195 -205 203 -32 2 -74 -2
-93 -9z m133 -169 c37 -44 4 -118 -55 -118 -31 0 -78 39 -78 64 0 73 87 109
133 54z"/>
<path d="M3998 1910 c-91 -27 -150 -102 -156 -197 -5 -74 10 -123 51 -170 43
-49 99 -73 172 -73 201 0 298 238 156 380 -63 62 -144 84 -223 60z m96 -151
c72 -33 45 -139 -36 -139 -73 0 -93 113 -25 140 30 12 32 12 61 -1z"/>
<path d="M1645 1281 c-125 -31 -200 -149 -174 -271 15 -70 57 -123 124 -155
104 -52 217 -20 288 81 33 48 46 132 28 187 -37 111 -160 184 -266 158z m86
-162 c49 -26 43 -107 -10 -129 -73 -30 -134 59 -79 117 23 25 57 29 89 12z"/>
<path d="M3362 1276 c-63 -21 -107 -59 -138 -121 -23 -48 -26 -64 -21 -117 10
-111 94 -195 205 -205 53 -5 69 -2 117 22 142 69 174 243 66 358 -56 61 -152
87 -229 63z m115 -168 c39 -36 26 -100 -24 -119 -58 -22 -116 36 -94 93 19 50
78 63 118 26z"/>
<path d="M2475 1036 c-187 -82 -186 -344 2 -423 41 -17 125 -17 166 0 189 80
189 344 0 424 -41 17 -129 16 -168 -1z m133 -156 c47 -44 15 -130 -48 -130
-38 0 -70 34 -70 75 0 41 32 75 70 75 14 0 36 -9 48 -20z"/>
</g>
</svg>
