<svg xmlns="http://www.w3.org/2000/svg"  viewBox="0 0 100 100" width="100px" height="100px"><path fill="#6666a3" d="M24,59l1.286-0.429c1.054-0.351,1.828-1.257,2.01-2.353L27.5,55l0.203,1.218 c0.183,1.096,0.956,2.001,2.01,2.353L31,59l-1.438,0.479c-0.973,0.324-1.713,1.123-1.962,2.118L27.5,62l-0.101-0.402 c-0.249-0.995-0.989-1.794-1.962-2.118L24,59z"/><path fill="#6666a3" d="M55,49l1.286-0.429c1.054-0.351,1.828-1.257,2.01-2.353L58.5,45l0.203,1.218 c0.183,1.096,0.956,2.001,2.01,2.353L62,49l-1.438,0.479c-0.973,0.324-1.713,1.123-1.962,2.118L58.5,52l-0.101-0.402 c-0.249-0.995-0.989-1.794-1.962-2.118L55,49z"/><path fill="#6666a3" d="M44,36l1.286-0.429c1.054-0.351,1.828-1.257,2.01-2.353L47.5,32l0.203,1.218 c0.183,1.096,0.956,2.001,2.01,2.353L51,36l-1.438,0.479c-0.973,0.324-1.713,1.123-1.962,2.118L47.5,39l-0.101-0.402 c-0.249-0.995-0.989-1.794-1.962-2.118L44,36z"/><path fill="#6666a3" d="M67,47l1.286-0.429c1.054-0.351,1.828-1.257,2.01-2.353L70.5,43l0.203,1.218 c0.183,1.096,0.956,2.001,2.01,2.353L74,47l-1.438,0.479c-0.973,0.324-1.713,1.123-1.962,2.118L70.5,50l-0.101-0.402 c-0.249-0.995-0.989-1.794-1.962-2.118L67,47z"/><path fill="#6666a3" d="M50.064,15.221L50.064,15.221c1.549,0,3.074,0.397,4.41,1.148l23.428,13.18 C81.047,31.317,83,34.656,83,38.264V61h-2V38.264c0-2.886-1.563-5.558-4.078-6.972l-23.428-13.18 c-1.042-0.585-2.228-0.895-3.43-0.895c-1.237,0-2.453,0.326-3.516,0.944L23.983,31.263C21.526,32.689,20,35.34,20,38.182V61h-2 V38.182c0-3.551,1.908-6.865,4.979-8.648l22.564-13.102C46.907,15.639,48.471,15.221,50.064,15.221"/><path fill="#6666a3" d="M37,86h27v-1h-2c-0.552,0-1-0.447-1-1v-3c0-0.553,0.448-1,1-1h16v-1h-7c-0.552,0-1-0.447-1-1v-3 c0-0.553,0.448-1,1-1h14v-1h-5c-0.552,0-1-0.447-1-1v-3c0-0.553,0.448-1,1-1h5v-1H64.346c-0.454,0-0.851-0.306-0.967-0.744 s0.078-0.9,0.472-1.125c3.176-1.807,5.811-4.32,7.733-7.355C69.151,58.589,66.61,59,64,59c-13.234,0-24-10.767-24-24 c0-2.608,0.411-5.147,1.223-7.58C34.937,31.421,31,38.449,31,46c0,7.891,4.27,15.221,11.142,19.131 c0.394,0.225,0.588,0.687,0.472,1.125S42.101,67,41.647,67H16v1h5c0.552,0,1,0.447,1,1v3c0,0.553-0.448,1-1,1h-5v1h14 c0.552,0,1,0.447,1,1v3c0,0.553-0.448,1-1,1h-7v1h16c0.552,0,1,0.447,1,1v3c0,0.553-0.448,1-1,1h-2V86z"/><path d="M50.064,15.221L50.064,15.221c1.549,0,3.074,0.397,4.41,1.148l23.428,13.18C81.047,31.317,83,34.656,83,38.264V61h-2 V38.264c0-2.886-1.563-5.558-4.078-6.972l-23.428-13.18c-1.042-0.585-2.228-0.895-3.43-0.895c-1.237,0-2.453,0.326-3.516,0.944 L23.983,31.263C21.526,32.689,20,35.34,20,38.182V61h-2V38.182c0-3.551,1.908-6.865,4.979-8.648l22.564-13.102 C46.907,15.639,48.471,15.221,50.064,15.221 M50.064,13.221c-1.913,0-3.825,0.494-5.525,1.48L21.975,27.804 C18.276,29.951,16,33.905,16,38.182V62c0,0.552,0.448,1,1,1h4c0.552,0,1-0.448,1-1V38.182c0-2.131,1.145-4.119,2.987-5.188 l22.565-13.103c0.773-0.449,1.642-0.674,2.512-0.674c0.846,0,1.692,0.213,2.45,0.638l23.427,13.18 C77.828,34.096,79,36.1,79,38.264V62c0,0.552,0.448,1,1,1h4c0.552,0,1-0.448,1-1V38.264c0-4.329-2.344-8.337-6.117-10.458 l-23.427-13.18C53.788,13.689,51.926,13.221,50.064,13.221L50.064,13.221z"/><path d="M65,88H36c-0.552,0-1-0.447-1-1v-3c0-0.553,0.448-1,1-1h2v-1H22c-0.552,0-1-0.447-1-1v-3c0-0.553,0.448-1,1-1h7v-1H15 c-0.552,0-1-0.447-1-1v-3c0-0.553,0.448-1,1-1h5v-1h-5c-0.552,0-1-0.447-1-1v-3c0-0.553,0.448-1,1-1h23.347 C32.513,60.49,29,53.476,29,46c0-9.24,5.404-17.762,13.767-21.711c0.381-0.18,0.835-0.101,1.134,0.197 c0.298,0.298,0.377,0.752,0.197,1.134C42.706,28.569,42,31.726,42,35c0,12.131,9.869,22,22,22c3.275,0,6.431-0.706,9.38-2.098 c0.382-0.18,0.836-0.1,1.134,0.197c0.299,0.299,0.377,0.752,0.197,1.134c-1.637,3.468-4.046,6.451-7.056,8.767H86 c0.552,0,1,0.447,1,1v3c0,0.553-0.448,1-1,1h-5v1h5c0.552,0,1,0.447,1,1v3c0,0.553-0.448,1-1,1H72v1h7c0.552,0,1,0.447,1,1v3 c0,0.553-0.448,1-1,1H63v1h2c0.552,0,1,0.447,1,1v3C66,87.553,65.552,88,65,88z M37,86h27v-1h-2c-0.552,0-1-0.447-1-1v-3 c0-0.553,0.448-1,1-1h16v-1h-7c-0.552,0-1-0.447-1-1v-3c0-0.553,0.448-1,1-1h14v-1h-5c-0.552,0-1-0.447-1-1v-3c0-0.553,0.448-1,1-1 h5v-1H64.346c-0.454,0-0.851-0.306-0.967-0.744s0.078-0.9,0.472-1.125c3.176-1.807,5.811-4.32,7.733-7.355 C69.151,58.589,66.61,59,64,59c-13.234,0-24-10.767-24-24c0-2.608,0.411-5.147,1.223-7.58C34.937,31.421,31,38.449,31,46 c0,7.891,4.27,15.221,11.142,19.131c0.394,0.225,0.588,0.687,0.472,1.125S42.101,67,41.647,67H16v1h5c0.552,0,1,0.447,1,1v3 c0,0.553-0.448,1-1,1h-5v1h14c0.552,0,1,0.447,1,1v3c0,0.553-0.448,1-1,1h-7v1h16c0.552,0,1,0.447,1,1v3c0,0.553-0.448,1-1,1h-2V86 z"/><path d="M70.5,50.5c-0.229,0-0.429-0.156-0.485-0.379l-0.101-0.402c-0.208-0.833-0.819-1.493-1.635-1.765l-1.438-0.479 C66.638,47.406,66.5,47.215,66.5,47s0.138-0.406,0.342-0.475l1.287-0.429c0.881-0.293,1.522-1.045,1.675-1.96l0.203-1.219 c0.04-0.241,0.249-0.418,0.493-0.418s0.453,0.177,0.493,0.418l0.203,1.219c0.153,0.915,0.794,1.667,1.675,1.96l1.287,0.429 C74.362,46.594,74.5,46.785,74.5,47s-0.138,0.406-0.342,0.475l-1.438,0.479c-0.816,0.271-1.427,0.932-1.635,1.765l-0.101,0.402 C70.929,50.344,70.729,50.5,70.5,50.5z M68.577,46.999l0.019,0.006c0.813,0.271,1.482,0.818,1.904,1.533 c0.422-0.715,1.091-1.262,1.904-1.533l0.019-0.006c-0.857-0.324-1.541-0.964-1.923-1.771 C70.117,46.035,69.434,46.675,68.577,46.999z"/><path d="M58.5,52.5c-0.229,0-0.429-0.156-0.485-0.379l-0.101-0.402c-0.208-0.833-0.819-1.493-1.635-1.765l-1.438-0.479 C54.638,49.406,54.5,49.215,54.5,49s0.138-0.406,0.342-0.475l1.287-0.429c0.881-0.293,1.522-1.045,1.675-1.96l0.203-1.219 c0.04-0.241,0.249-0.418,0.493-0.418s0.453,0.177,0.493,0.418l0.203,1.219c0.153,0.915,0.794,1.667,1.675,1.96l1.287,0.429 C62.362,48.594,62.5,48.785,62.5,49s-0.138,0.406-0.342,0.475l-1.438,0.479c-0.816,0.271-1.427,0.932-1.635,1.765l-0.101,0.402 C58.929,52.344,58.729,52.5,58.5,52.5z M56.577,48.999l0.019,0.006c0.813,0.271,1.482,0.818,1.904,1.533 c0.422-0.715,1.091-1.262,1.904-1.533l0.019-0.006c-0.857-0.324-1.541-0.964-1.923-1.771 C58.117,48.035,57.434,48.675,56.577,48.999z"/><path d="M27.5,62.5c-0.229,0-0.429-0.156-0.485-0.379l-0.101-0.402c-0.208-0.833-0.819-1.493-1.635-1.765l-1.438-0.479 C23.638,59.406,23.5,59.215,23.5,59s0.138-0.406,0.342-0.475l1.287-0.429c0.881-0.293,1.522-1.045,1.675-1.96l0.203-1.219 c0.04-0.241,0.249-0.418,0.493-0.418s0.453,0.177,0.493,0.418l0.203,1.219c0.153,0.915,0.794,1.667,1.675,1.96l1.287,0.429 C31.362,58.594,31.5,58.785,31.5,59s-0.138,0.406-0.342,0.475l-1.438,0.479c-0.816,0.271-1.427,0.932-1.635,1.765l-0.101,0.402 C27.929,62.344,27.729,62.5,27.5,62.5z M25.577,58.999l0.019,0.006c0.813,0.271,1.482,0.818,1.904,1.533 c0.422-0.715,1.091-1.262,1.904-1.533l0.019-0.006c-0.857-0.324-1.541-0.964-1.923-1.771 C27.117,58.035,26.434,58.675,25.577,58.999z"/><path d="M47.5,39.5c-0.229,0-0.429-0.156-0.485-0.379l-0.101-0.402c-0.208-0.833-0.819-1.493-1.635-1.765l-1.438-0.479 C43.638,36.406,43.5,36.215,43.5,36s0.138-0.406,0.342-0.475l1.287-0.429c0.881-0.293,1.522-1.045,1.675-1.96l0.203-1.219 c0.04-0.241,0.249-0.418,0.493-0.418s0.453,0.177,0.493,0.418l0.203,1.219c0.153,0.915,0.794,1.667,1.675,1.96l1.287,0.429 C51.362,35.594,51.5,35.785,51.5,36s-0.138,0.406-0.342,0.475l-1.438,0.479c-0.816,0.271-1.427,0.932-1.635,1.765l-0.101,0.402 C47.929,39.344,47.729,39.5,47.5,39.5z M45.577,35.999l0.019,0.006c0.813,0.271,1.482,0.818,1.904,1.533 c0.422-0.715,1.091-1.262,1.904-1.533l0.019-0.006c-0.857-0.324-1.541-0.964-1.923-1.771 C47.117,35.035,46.434,35.675,45.577,35.999z"/><path d="M55.5,41H55v-0.5c0-0.276-0.224-0.5-0.5-0.5S54,40.224,54,40.5V41h-0.5c-0.276,0-0.5,0.224-0.5,0.5s0.224,0.5,0.5,0.5H54 v0.5c0,0.276,0.224,0.5,0.5,0.5s0.5-0.224,0.5-0.5V42h0.5c0.276,0,0.5-0.224,0.5-0.5S55.776,41,55.5,41z"/><path d="M27.5,37H27v-0.5c0-0.276-0.224-0.5-0.5-0.5S26,36.224,26,36.5V37h-0.5c-0.276,0-0.5,0.224-0.5,0.5s0.224,0.5,0.5,0.5H26 v0.5c0,0.276,0.224,0.5,0.5,0.5s0.5-0.224,0.5-0.5V38h0.5c0.276,0,0.5-0.224,0.5-0.5S27.776,37,27.5,37z"/><path d="M67.5,33H67v-0.5c0-0.276-0.224-0.5-0.5-0.5S66,32.224,66,32.5V33h-0.5c-0.276,0-0.5,0.224-0.5,0.5s0.224,0.5,0.5,0.5H66 v0.5c0,0.276,0.224,0.5,0.5,0.5s0.5-0.224,0.5-0.5V34h0.5c0.276,0,0.5-0.224,0.5-0.5S67.776,33,67.5,33z"/><path d="M51.5,25H51v-0.5c0-0.276-0.224-0.5-0.5-0.5S50,24.224,50,24.5V25h-0.5c-0.276,0-0.5,0.224-0.5,0.5s0.224,0.5,0.5,0.5H50 v0.5c0,0.276,0.224,0.5,0.5,0.5s0.5-0.224,0.5-0.5V26h0.5c0.276,0,0.5-0.224,0.5-0.5S51.776,25,51.5,25z"/></svg>